<svg viewBox="0 0 1600 1000" xmlns="http://www.w3.org/2000/svg">
  <!-- Title -->
  <text x="800" y="30" font-size="24" font-weight="bold" text-anchor="middle" fill="#0061ff">
    Dropbox Architecture - Cloud Storage &amp; Sync Platform
  </text>
  
  <!-- Client Layer -->
  <g id="client-layer">
    <rect x="50" y="60" width="300" height="140" fill="#e7f0ff" stroke="#0061ff" stroke-width="2" rx="5"/>
    <text x="200" y="85" font-size="14" font-weight="bold" text-anchor="middle" fill="#0061ff">Client Applications</text>
    
    <rect x="70" y="100" width="120" height="35" fill="#cce0ff" stroke="#0061ff" rx="3"/>
    <text x="130" y="122" font-size="11" text-anchor="middle">Desktop Clients</text>
    
    <rect x="210" y="100" width="120" height="35" fill="#cce0ff" stroke="#0061ff" rx="3"/>
    <text x="270" y="122" font-size="11" text-anchor="middle">Mobile Apps</text>
    
    <rect x="70" y="145" width="120" height="35" fill="#cce0ff" stroke="#0061ff" rx="3"/>
    <text x="130" y="167" font-size="11" text-anchor="middle">Web Interface</text>
    
    <rect x="210" y="145" width="120" height="35" fill="#cce0ff" stroke="#0061ff" rx="3"/>
    <text x="270" y="167" font-size="11" text-anchor="middle">API Clients</text>
  </g>
  
  <!-- Sync Engine -->
  <g id="sync-engine">
    <rect x="400" y="60" width="300" height="140" fill="#fff0e6" stroke="#ff8c00" stroke-width="2" rx="5"/>
    <text x="550" y="85" font-size="14" font-weight="bold" text-anchor="middle" fill="#ff8c00">Sync Engine</text>
    
    <rect x="420" y="100" width="120" height="35" fill="#ffe0cc" stroke="#ff8c00" rx="3"/>
    <text x="480" y="115" font-size="10" text-anchor="middle">File Watcher</text>
    <text x="480" y="127" font-size="9" text-anchor="middle" fill="#666">Local changes</text>
    
    <rect x="560" y="100" width="120" height="35" fill="#ffe0cc" stroke="#ff8c00" rx="3"/>
    <text x="620" y="115" font-size="10" text-anchor="middle">Delta Sync</text>
    <text x="620" y="127" font-size="9" text-anchor="middle" fill="#666">Block-level</text>
    
    <rect x="420" y="145" width="120" height="35" fill="#ffe0cc" stroke="#ff8c00" rx="3"/>
    <text x="480" y="160" font-size="10" text-anchor="middle">Conflict Detector</text>
    <text x="480" y="172" font-size="9" text-anchor="middle" fill="#666">Resolution</text>
    
    <rect x="560" y="145" width="120" height="35" fill="#ffe0cc" stroke="#ff8c00" rx="3"/>
    <text x="620" y="160" font-size="10" text-anchor="middle">Merkle Trees</text>
    <text x="620" y="172" font-size="9" text-anchor="middle" fill="#666">Comparison</text>
  </g>
  
  <!-- API Gateway -->
  <g id="api-gateway">
    <rect x="750" y="60" width="300" height="140" fill="#f0f4f8" stroke="#607d8b" stroke-width="2" rx="5"/>
    <text x="900" y="85" font-size="14" font-weight="bold" text-anchor="middle" fill="#607d8b">API Gateway</text>
    
    <rect x="770" y="100" width="120" height="35" fill="#cfd8dc" stroke="#607d8b" rx="3"/>
    <text x="830" y="122" font-size="11" text-anchor="middle">Load Balancer</text>
    
    <rect x="910" y="100" width="120" height="35" fill="#cfd8dc" stroke="#607d8b" rx="3"/>
    <text x="970" y="122" font-size="11" text-anchor="middle">Auth Service</text>
    
    <rect x="770" y="145" width="120" height="35" fill="#cfd8dc" stroke="#607d8b" rx="3"/>
    <text x="830" y="167" font-size="11" text-anchor="middle">Rate Limiter</text>
    
    <rect x="910" y="145" width="120" height="35" fill="#cfd8dc" stroke="#607d8b" rx="3"/>
    <text x="970" y="167" font-size="11" text-anchor="middle">SSL/TLS</text>
  </g>
  
  <!-- Notification Service -->
  <g id="notification">
    <rect x="1100" y="60" width="250" height="140" fill="#e8f5e9" stroke="#4caf50" stroke-width="2" rx="5"/>
    <text x="1225" y="85" font-size="14" font-weight="bold" text-anchor="middle" fill="#4caf50">Notification System</text>
    
    <rect x="1120" y="100" width="100" height="35" fill="#c8e6c9" stroke="#4caf50" rx="3"/>
    <text x="1170" y="122" font-size="11" text-anchor="middle">WebSocket</text>
    
    <rect x="1230" y="100" width="100" height="35" fill="#c8e6c9" stroke="#4caf50" rx="3"/>
    <text x="1280" y="122" font-size="11" text-anchor="middle">Push Notify</text>
    
    <rect x="1120" y="145" width="100" height="35" fill="#c8e6c9" stroke="#4caf50" rx="3"/>
    <text x="1170" y="167" font-size="11" text-anchor="middle">Long Polling</text>
    
    <rect x="1230" y="145" width="100" height="35" fill="#c8e6c9" stroke="#4caf50" rx="3"/>
    <text x="1280" y="167" font-size="11" text-anchor="middle">Event Queue</text>
  </g>
  
  <!-- CDN -->
  <g id="cdn">
    <rect x="1400" y="60" width="150" height="140" fill="#ffeeff" stroke="#9c27b0" stroke-width="2" rx="5"/>
    <text x="1475" y="85" font-size="14" font-weight="bold" text-anchor="middle" fill="#9c27b0">CDN</text>
    
    <rect x="1415" y="100" width="120" height="35" fill="#f3e5f5" stroke="#9c27b0" rx="3"/>
    <text x="1475" y="122" font-size="11" text-anchor="middle">Edge Cache</text>
    
    <rect x="1415" y="145" width="120" height="35" fill="#f3e5f5" stroke="#9c27b0" rx="3"/>
    <text x="1475" y="167" font-size="11" text-anchor="middle">Popular Files</text>
  </g>
  
  <!-- Core Services -->
  <g id="file-services">
    <rect x="50" y="250" width="400" height="180" fill="#e3f2fd" stroke="#2196f3" stroke-width="2" rx="5"/>
    <text x="250" y="275" font-size="14" font-weight="bold" text-anchor="middle" fill="#2196f3">File Services</text>
    
    <rect x="70" y="290" width="170" height="40" fill="#bbdefb" stroke="#2196f3" rx="3"/>
    <text x="155" y="308" font-size="11" text-anchor="middle">Upload Service</text>
    <text x="155" y="320" font-size="9" text-anchor="middle" fill="#666">Chunked upload</text>
    
    <rect x="260" y="290" width="170" height="40" fill="#bbdefb" stroke="#2196f3" rx="3"/>
    <text x="345" y="308" font-size="11" text-anchor="middle">Download Service</text>
    <text x="345" y="320" font-size="9" text-anchor="middle" fill="#666">Parallel download</text>
    
    <rect x="70" y="340" width="170" height="40" fill="#bbdefb" stroke="#2196f3" rx="3"/>
    <text x="155" y="358" font-size="11" text-anchor="middle">Chunking Service</text>
    <text x="155" y="370" font-size="9" text-anchor="middle" fill="#666">4MB blocks</text>
    
    <rect x="260" y="340" width="170" height="40" fill="#bbdefb" stroke="#2196f3" rx="3"/>
    <text x="345" y="358" font-size="11" text-anchor="middle">Compression</text>
    <text x="345" y="370" font-size="9" text-anchor="middle" fill="#666">gzip/lz4</text>
  </g>
  
  <!-- Deduplication -->
  <g id="deduplication">
    <rect x="500" y="250" width="400" height="180" fill="#f3e5f5" stroke="#9c27b0" stroke-width="2" rx="5"/>
    <text x="700" y="275" font-size="14" font-weight="bold" text-anchor="middle" fill="#9c27b0">Deduplication System</text>
    
    <rect x="520" y="290" width="170" height="40" fill="#e1bee7" stroke="#9c27b0" rx="3"/>
    <text x="605" y="308" font-size="11" text-anchor="middle">Hash Calculator</text>
    <text x="605" y="320" font-size="9" text-anchor="middle" fill="#666">SHA-256</text>
    
    <rect x="710" y="290" width="170" height="40" fill="#e1bee7" stroke="#9c27b0" rx="3"/>
    <text x="795" y="308" font-size="11" text-anchor="middle">Content Addressing</text>
    <text x="795" y="320" font-size="9" text-anchor="middle" fill="#666">CAS storage</text>
    
    <rect x="520" y="340" width="170" height="40" fill="#e1bee7" stroke="#9c27b0" rx="3"/>
    <text x="605" y="358" font-size="11" text-anchor="middle">Reference Counter</text>
    <text x="605" y="370" font-size="9" text-anchor="middle" fill="#666">Chunk tracking</text>
    
    <rect x="710" y="340" width="170" height="40" fill="#e1bee7" stroke="#9c27b0" rx="3"/>
    <text x="795" y="358" font-size="11" text-anchor="middle">Bloom Filter</text>
    <text x="795" y="370" font-size="9" text-anchor="middle" fill="#666">Quick check</text>
  </g>
  
  <!-- Sharing Service -->
  <g id="sharing">
    <rect x="950" y="250" width="400" height="180" fill="#fff9c4" stroke="#ffc107" stroke-width="2" rx="5"/>
    <text x="1150" y="275" font-size="14" font-weight="bold" text-anchor="middle" fill="#ff8f00">Sharing &amp; Collaboration</text>
    
    <rect x="970" y="290" width="170" height="40" fill="#fff59d" stroke="#ff8f00" rx="3"/>
    <text x="1055" y="308" font-size="11" text-anchor="middle">Sharing Service</text>
    <text x="1055" y="320" font-size="9" text-anchor="middle" fill="#666">Links &amp; permissions</text>
    
    <rect x="1160" y="290" width="170" height="40" fill="#fff59d" stroke="#ff8f00" rx="3"/>
    <text x="1245" y="308" font-size="11" text-anchor="middle">Access Control</text>
    <text x="1245" y="320" font-size="9" text-anchor="middle" fill="#666">ACL management</text>
    
    <rect x="970" y="340" width="170" height="40" fill="#fff59d" stroke="#ff8f00" rx="3"/>
    <text x="1055" y="358" font-size="11" text-anchor="middle">Collaboration</text>
    <text x="1055" y="370" font-size="9" text-anchor="middle" fill="#666">Real-time edits</text>
    
    <rect x="1160" y="340" width="170" height="40" fill="#fff59d" stroke="#ff8f00" rx="3"/>
    <text x="1245" y="358" font-size="11" text-anchor="middle">Activity Feed</text>
    <text x="1245" y="370" font-size="9" text-anchor="middle" fill="#666">Change tracking</text>
  </g>
  
  <!-- Processing -->
  <g id="processing">
    <rect x="1400" y="250" width="150" height="180" fill="#ffebee" stroke="#f44336" stroke-width="2" rx="5"/>
    <text x="1475" y="275" font-size="14" font-weight="bold" text-anchor="middle" fill="#f44336">Processing</text>
    
    <rect x="1415" y="290" width="120" height="40" fill="#ffcdd2" stroke="#f44336" rx="3"/>
    <text x="1475" y="308" font-size="11" text-anchor="middle">Encryption</text>
    <text x="1475" y="320" font-size="9" text-anchor="middle" fill="#666">AES-256</text>
    
    <rect x="1415" y="340" width="120" height="40" fill="#ffcdd2" stroke="#f44336" rx="3"/>
    <text x="1475" y="358" font-size="11" text-anchor="middle">Virus Scan</text>
    <text x="1475" y="370" font-size="9" text-anchor="middle" fill="#666">Malware check</text>
  </g>
  
  <!-- Storage Layer -->
  <g id="metadata-storage">
    <rect x="50" y="480" width="320" height="180" fill="#e0f2f1" stroke="#009688" stroke-width="2" rx="5"/>
    <text x="210" y="505" font-size="14" font-weight="bold" text-anchor="middle" fill="#009688">Metadata Storage</text>
    
    <rect x="70" y="520" width="140" height="40" fill="#b2dfdb" stroke="#009688" rx="3"/>
    <text x="140" y="538" font-size="11" text-anchor="middle">MySQL Shards</text>
    <text x="140" y="550" font-size="9" text-anchor="middle" fill="#666">File metadata</text>
    
    <rect x="220" y="520" width="140" height="40" fill="#b2dfdb" stroke="#009688" rx="3"/>
    <text x="290" y="538" font-size="11" text-anchor="middle">DynamoDB</text>
    <text x="290" y="550" font-size="9" text-anchor="middle" fill="#666">Sync state</text>
    
    <rect x="70" y="570" width="140" height="40" fill="#b2dfdb" stroke="#009688" rx="3"/>
    <text x="140" y="588" font-size="11" text-anchor="middle">Version Store</text>
    <text x="140" y="600" font-size="9" text-anchor="middle" fill="#666">30-day history</text>
    
    <rect x="220" y="570" width="140" height="40" fill="#b2dfdb" stroke="#009688" rx="3"/>
    <text x="290" y="588" font-size="11" text-anchor="middle">Index DB</text>
    <text x="290" y="600" font-size="9" text-anchor="middle" fill="#666">Search index</text>
  </g>
  
  <!-- Block Storage -->
  <g id="block-storage">
    <rect x="420" y="480" width="320" height="180" fill="#fce4ec" stroke="#e91e63" stroke-width="2" rx="5"/>
    <text x="580" y="505" font-size="14" font-weight="bold" text-anchor="middle" fill="#e91e63">Block Storage</text>
    
    <rect x="440" y="520" width="140" height="40" fill="#f8bbd0" stroke="#e91e63" rx="3"/>
    <text x="510" y="538" font-size="11" text-anchor="middle">CAS Storage</text>
    <text x="510" y="550" font-size="9" text-anchor="middle" fill="#666">Content addressed</text>
    
    <rect x="590" y="520" width="140" height="40" fill="#f8bbd0" stroke="#e91e63" rx="3"/>
    <text x="660" y="538" font-size="11" text-anchor="middle">Distributed FS</text>
    <text x="660" y="550" font-size="9" text-anchor="middle" fill="#666">Chunk storage</text>
    
    <rect x="440" y="570" width="140" height="40" fill="#f8bbd0" stroke="#e91e63" rx="3"/>
    <text x="510" y="588" font-size="11" text-anchor="middle">Erasure Coding</text>
    <text x="510" y="600" font-size="9" text-anchor="middle" fill="#666">Reed-Solomon</text>
    
    <rect x="590" y="570" width="140" height="40" fill="#f8bbd0" stroke="#e91e63" rx="3"/>
    <text x="660" y="588" font-size="11" text-anchor="middle">Replication</text>
    <text x="660" y="600" font-size="9" text-anchor="middle" fill="#666">3x redundancy</text>
  </g>
  
  <!-- Storage Tiers -->
  <g id="storage-tiers">
    <rect x="790" y="480" width="320" height="180" fill="#f3e5f5" stroke="#7b1fa2" stroke-width="2" rx="5"/>
    <text x="950" y="505" font-size="14" font-weight="bold" text-anchor="middle" fill="#7b1fa2">Storage Tiers</text>
    
    <rect x="810" y="520" width="140" height="40" fill="#e1bee7" stroke="#7b1fa2" rx="3"/>
    <text x="880" y="538" font-size="11" text-anchor="middle">Hot Tier (SSD)</text>
    <text x="880" y="550" font-size="9" text-anchor="middle" fill="#666">Active files</text>
    
    <rect x="960" y="520" width="140" height="40" fill="#e1bee7" stroke="#7b1fa2" rx="3"/>
    <text x="1030" y="538" font-size="11" text-anchor="middle">Warm Tier (HDD)</text>
    <text x="1030" y="550" font-size="9" text-anchor="middle" fill="#666">Occasional access</text>
    
    <rect x="810" y="570" width="140" height="40" fill="#e1bee7" stroke="#7b1fa2" rx="3"/>
    <text x="880" y="588" font-size="11" text-anchor="middle">Cold Tier</text>
    <text x="880" y="600" font-size="9" text-anchor="middle" fill="#666">Archive/Glacier</text>
    
    <rect x="960" y="570" width="140" height="40" fill="#e1bee7" stroke="#7b1fa2" rx="3"/>
    <text x="1030" y="588" font-size="11" text-anchor="middle">Migration Policy</text>
    <text x="1030" y="600" font-size="9" text-anchor="middle" fill="#666">Auto-tiering</text>
  </g>
  
  <!-- Cache Layer -->
  <g id="cache">
    <rect x="1160" y="480" width="240" height="180" fill="#fff8e1" stroke="#ff9800" stroke-width="2" rx="5"/>
    <text x="1280" y="505" font-size="14" font-weight="bold" text-anchor="middle" fill="#ff9800">Cache Layer</text>
    
    <rect x="1180" y="520" width="100" height="40" fill="#ffe0b2" stroke="#ff9800" rx="3"/>
    <text x="1230" y="538" font-size="11" text-anchor="middle">Redis</text>
    <text x="1230" y="550" font-size="9" text-anchor="middle" fill="#666">Metadata</text>
    
    <rect x="1290" y="520" width="100" height="40" fill="#ffe0b2" stroke="#ff9800" rx="3"/>
    <text x="1340" y="538" font-size="11" text-anchor="middle">Memcached</text>
    <text x="1340" y="550" font-size="9" text-anchor="middle" fill="#666">Sessions</text>
    
    <rect x="1180" y="570" width="100" height="40" fill="#ffe0b2" stroke="#ff9800" rx="3"/>
    <text x="1230" y="588" font-size="11" text-anchor="middle">Block Cache</text>
    <text x="1230" y="600" font-size="9" text-anchor="middle" fill="#666">Hot chunks</text>
    
    <rect x="1290" y="570" width="100" height="40" fill="#ffe0b2" stroke="#ff9800" rx="3"/>
    <text x="1340" y="588" font-size="11" text-anchor="middle">Client Cache</text>
    <text x="1340" y="600" font-size="9" text-anchor="middle" fill="#666">Local storage</text>
  </g>
  
  <!-- Search -->
  <g id="search">
    <rect x="1450" y="480" width="100" height="180" fill="#e8eaf6" stroke="#3f51b5" stroke-width="2" rx="5"/>
    <text x="1500" y="505" font-size="13" font-weight="bold" text-anchor="middle" fill="#3f51b5">Search</text>
    
    <rect x="1460" y="520" width="80" height="40" fill="#c5cae9" stroke="#3f51b5" rx="3"/>
    <text x="1500" y="538" font-size="10" text-anchor="middle">Elastic</text>
    <text x="1500" y="550" font-size="9" text-anchor="middle" fill="#666">Index</text>
    
    <rect x="1460" y="570" width="80" height="40" fill="#c5cae9" stroke="#3f51b5" rx="3"/>
    <text x="1500" y="588" font-size="10" text-anchor="middle">OCR</text>
    <text x="1500" y="600" font-size="9" text-anchor="middle" fill="#666">Content</text>
  </g>
  
  <!-- Connection arrows -->
  <defs>
    <marker id="arrow" markerWidth="10" markerHeight="7" refX="9" refY="3.5" orient="auto">
      <polygon points="0 0, 10 3.5, 0 7" fill="#666"/>
    </marker>
  </defs>
  
  <path d="M 350 130 L 400 130" stroke="#666" stroke-width="2" marker-end="url(#arrow)"/>
  <path d="M 700 130 L 750 130" stroke="#666" stroke-width="2" marker-end="url(#arrow)"/>
  <path d="M 1050 130 L 1100 130" stroke="#666" stroke-width="2" marker-end="url(#arrow)"/>
  
  <path d="M 550 200 L 250 250" stroke="#666" stroke-width="2" marker-end="url(#arrow)"/>
  <path d="M 550 200 L 700 250" stroke="#666" stroke-width="2" marker-end="url(#arrow)"/>
  <path d="M 900 200 L 1150 250" stroke="#666" stroke-width="2" marker-end="url(#arrow)"/>
  
  <path d="M 250 430 L 210 480" stroke="#666" stroke-width="2" marker-end="url(#arrow)"/>
  <path d="M 700 430 L 580 480" stroke="#666" stroke-width="2" marker-end="url(#arrow)"/>
  <path d="M 700 430 L 950 480" stroke="#666" stroke-width="2" marker-end="url(#arrow)"/>
  <path d="M 1150 430 L 1280 480" stroke="#666" stroke-width="2" marker-end="url(#arrow)"/>
  
  <!-- Info Boxes -->
  <g id="info-boxes">
    <rect x="50" y="710" width="230" height="140" fill="#f5f5f5" stroke="#999" stroke-width="1" rx="3"/>
    <text x="60" y="728" font-size="12" font-weight="bold" fill="#333">Scale Metrics:</text>
    <text x="60" y="745" font-size="10" fill="#555">• 700M registered users</text>
    <text x="60" y="760" font-size="10" fill="#555">• 300M active users</text>
    <text x="60" y="775" font-size="10" fill="#555">• 1B files uploaded daily</text>
    <text x="60" y="790" font-size="10" fill="#555">• 500KB avg file size</text>
    <text x="60" y="805" font-size="10" fill="#555">• 500PB total storage</text>
    <text x="60" y="820" font-size="10" fill="#555">• 10TB/s peak bandwidth</text>
    <text x="60" y="835" font-size="10" fill="#555">• Files up to 50GB</text>
    
    <rect x="300" y="710" width="230" height="140" fill="#f5f5f5" stroke="#999" stroke-width="1" rx="3"/>
    <text x="310" y="728" font-size="12" font-weight="bold" fill="#333">Sync Features:</text>
    <text x="310" y="745" font-size="10" fill="#555">• Block-level sync</text>
    <text x="310" y="760" font-size="10" fill="#555">• 4MB chunk size</text>
    <text x="310" y="775" font-size="10" fill="#555">• Delta compression</text>
    <text x="310" y="790" font-size="10" fill="#555">• Merkle tree comparison</text>
    <text x="310" y="805" font-size="10" fill="#555">• LAN sync (P2P)</text>
    <text x="310" y="820" font-size="10" fill="#555">• Offline support</text>
    <text x="310" y="835" font-size="10" fill="#555">• Selective sync</text>
    
    <rect x="550" y="710" width="230" height="140" fill="#f5f5f5" stroke="#999" stroke-width="1" rx="3"/>
    <text x="560" y="728" font-size="12" font-weight="bold" fill="#333">Deduplication:</text>
    <text x="560" y="745" font-size="10" fill="#555">• Content addressing (SHA-256)</text>
    <text x="560" y="760" font-size="10" fill="#555">• Global dedup across users</text>
    <text x="560" y="775" font-size="10" fill="#555">• 30-40% storage savings</text>
    <text x="560" y="790" font-size="10" fill="#555">• Reference counting</text>
    <text x="560" y="805" font-size="10" fill="#555">• Rabin fingerprinting</text>
    <text x="560" y="820" font-size="10" fill="#555">• Bloom filter checks</text>
    <text x="560" y="835" font-size="10" fill="#555">• Lazy deletion</text>
    
    <rect x="800" y="710" width="230" height="140" fill="#f5f5f5" stroke="#999" stroke-width="1" rx="3"/>
    <text x="810" y="728" font-size="12" font-weight="bold" fill="#333">Performance:</text>
    <text x="810" y="745" font-size="10" fill="#555">• Sync latency &lt; 1 second</text>
    <text x="810" y="760" font-size="10" fill="#555">• 99.99% durability</text>
    <text x="810" y="775" font-size="10" fill="#555">• 99.95% availability</text>
    <text x="810" y="790" font-size="10" fill="#555">• Version history: 30 days</text>
    <text x="810" y="805" font-size="10" fill="#555">• 3x replication</text>
    <text x="810" y="820" font-size="10" fill="#555">• Erasure coding (10+4)</text>
    <text x="810" y="835" font-size="10" fill="#555">• Multi-region backup</text>
    
    <rect x="1050" y="710" width="230" height="140" fill="#f5f5f5" stroke="#999" stroke-width="1" rx="3"/>
    <text x="1060" y="728" font-size="12" font-weight="bold" fill="#333">Key Features:</text>
    <text x="1060" y="745" font-size="10" fill="#555">• Auto sync across devices</text>
    <text x="1060" y="760" font-size="10" fill="#555">• File versioning</text>
    <text x="1060" y="775" font-size="10" fill="#555">• Sharing &amp; collaboration</text>
    <text x="1060" y="790" font-size="10" fill="#555">• Conflict resolution</text>
    <text x="1060" y="805" font-size="10" fill="#555">• Bandwidth optimization</text>
    <text x="1060" y="820" font-size="10" fill="#555">• End-to-end encryption</text>
    <text x="1060" y="835" font-size="10" fill="#555">• Public link generation</text>
    
    <rect x="1300" y="710" width="250" height="140" fill="#f5f5f5" stroke="#999" stroke-width="1" rx="3"/>
    <text x="1310" y="728" font-size="12" font-weight="bold" fill="#333">Infrastructure:</text>
    <text x="1310" y="745" font-size="10" fill="#555">• 50K storage nodes</text>
    <text x="1310" y="760" font-size="10" fill="#555">• 10K API servers</text>
    <text x="1310" y="775" font-size="10" fill="#555">• 5K sync servers</text>
    <text x="1310" y="790" font-size="10" fill="#555">• 1K database nodes</text>
    <text x="1310" y="805" font-size="10" fill="#555">• 2K cache servers</text>
    <text x="1310" y="820" font-size="10" fill="#555">• Multiple data centers</text>
    <text x="1310" y="835" font-size="10" fill="#555">• Cross-region replication</text>
  </g>
</svg>